####
#
# OBJ File Generated by Meshlab
#
####
# Object caogang.obj
#
# Vertices: 68
# Faces: 132
#
####
mtllib ./caogang.mtl

vn -0.5356876 0.6231558 0.5698382
v -0.500000 0.500000 0.500000
vn -0.5356866 0.6231576 -0.5698373
v -0.500000 0.500000 -0.500000
vn -0.5773507 -0.5773510 -0.5773492
v -0.500000 -0.500000 -0.500000
vn -0.5773509 -0.5773509 0.5773491
v -0.500000 -0.500000 0.500000
vn 0.5773506 -0.5773507 -0.5773497
v 0.500000 -0.500000 -0.500000
vn 0.5773505 -0.5773507 0.5773497
v 0.500000 -0.500000 0.500000
vn 0.5356877 0.6231560 -0.5698380
v 0.500000 0.500000 -0.500000
vn 0.5356866 0.6231577 0.5698371
v 0.500000 0.500000 0.500000
vn -0.7159809 0.1020691 -0.6906181
v 0.471309 0.422217 -0.500000
vn -0.7159823 0.1020695 0.6906165
v 0.471309 0.422217 0.500000
vn -0.6887445 0.2650141 0.6748323
v 0.473161 0.446600 0.500000
vn -0.6887468 0.2650147 -0.6748297
v 0.473161 0.446600 -0.500000
vn -0.5791925 0.4571843 0.6749212
v 0.477428 0.468300 0.500000
vn -0.5791922 0.4571848 -0.6749212
v 0.477428 0.468300 -0.500000
vn -0.4176685 0.6084284 0.6748096
v 0.483720 0.485367 0.500000
vn -0.4176672 0.6084261 -0.6748125
v 0.483720 0.485367 -0.500000
vn -0.2185756 0.7047416 0.6749549
v 0.491477 0.496250 0.500000
vn -0.2185767 0.7047439 -0.6749521
v 0.491477 0.496250 -0.500000
vn -0.6933402 0.0754715 -0.7166474
v 0.459808 -0.077783 -0.500000
vn -0.6933399 0.0754714 0.7166477
v 0.459808 -0.077783 0.500000
vn -0.1143285 0.6777393 -0.7263597
v 0.364179 -0.384300 -0.500000
vn -0.0291667 0.6968313 -0.7166418
v 0.345046 -0.388950 -0.500000
vn -0.0291666 0.6968307 0.7166424
v 0.345046 -0.388950 0.500000
vn -0.2254689 0.6492196 -0.7264143
v 0.382782 -0.370500 -0.500000
vn -0.1143287 0.6777403 0.7263588
v 0.364179 -0.384300 0.500000
vn -0.3303399 0.6027385 -0.7263484
v 0.400328 -0.347917 -0.500000
vn -0.2254686 0.6492187 0.7264152
v 0.382782 -0.370500 0.500000
vn -0.4259840 0.5392785 -0.7264410
v 0.416338 -0.317200 -0.500000
vn -0.3303398 0.6027383 0.7263486
v 0.400328 -0.347917 0.500000
vn -0.5098464 0.4609779 -0.7263306
v 0.430358 -0.279167 -0.500000
vn -0.4259846 0.5392792 0.7264400
v 0.416338 -0.317200 0.500000
vn -0.5793114 0.3697596 -0.7264132
v 0.442004 -0.234933 -0.500000
vn -0.5098459 0.4609772 0.7263314
v 0.430358 -0.279167 0.500000
vn -0.6328118 0.2681147 -0.7264047
v 0.450946 -0.185683 -0.500000
vn -0.5793122 0.3697600 0.7264124
v 0.442004 -0.234933 0.500000
vn -0.6686414 0.1591669 -0.7263502
v 0.456933 -0.132817 -0.500000
vn -0.6328110 0.2681142 0.7264056
v 0.450946 -0.185683 0.500000
vn -0.6686422 0.1591671 0.7263495
v 0.456933 -0.132817 0.500000
vn 0.0291666 0.6968306 -0.7166425
v -0.345046 -0.388950 -0.500000
vn 0.0291667 0.6968310 0.7166421
v -0.345046 -0.388950 0.500000
vn 0.3303400 0.6027384 0.7263485
v -0.400328 -0.347917 0.500000
vn 0.4259840 0.5392784 0.7264410
v -0.416338 -0.317200 0.500000
vn 0.1143285 0.6777392 0.7263598
v -0.364179 -0.384300 0.500000
vn 0.7159809 0.1020690 0.6906182
v -0.471309 0.422217 0.500000
vn 0.4176673 0.6084261 0.6748124
v -0.483720 0.485367 0.500000
vn 0.2185767 0.7047439 0.6749522
v -0.491477 0.496250 0.500000
vn 0.6887469 0.2650147 0.6748296
v -0.473161 0.446600 0.500000
vn 0.5791921 0.4571848 0.6749212
v -0.477428 0.468300 0.500000
vn 0.5098465 0.4609778 0.7263306
v -0.430358 -0.279167 0.500000
vn 0.6933402 0.0754714 0.7166474
v -0.459808 -0.077783 0.500000
vn 0.5793114 0.3697596 0.7264132
v -0.442004 -0.234933 0.500000
vn 0.6328118 0.2681146 0.7264047
v -0.450946 -0.185683 0.500000
vn 0.2254689 0.6492195 0.7264143
v -0.382782 -0.370500 0.500000
vn 0.6686414 0.1591669 0.7263502
v -0.456933 -0.132817 0.500000
vn 0.1143286 0.6777403 -0.7263588
v -0.364179 -0.384300 -0.500000
vn 0.2254687 0.6492188 -0.7264152
v -0.382782 -0.370500 -0.500000
vn 0.5098459 0.4609773 -0.7263314
v -0.430358 -0.279167 -0.500000
vn 0.4259846 0.5392793 -0.7264400
v -0.416338 -0.317200 -0.500000
vn 0.5793122 0.3697601 -0.7264124
v -0.442004 -0.234933 -0.500000
vn 0.7159823 0.1020696 -0.6906165
v -0.471309 0.422217 -0.500000
vn 0.4176686 0.6084285 -0.6748095
v -0.483720 0.485367 -0.500000
vn 0.5791924 0.4571844 -0.6749212
v -0.477428 0.468300 -0.500000
vn 0.2185756 0.7047416 -0.6749548
v -0.491477 0.496250 -0.500000
vn 0.3303397 0.6027384 -0.7263485
v -0.400328 -0.347917 -0.500000
vn 0.6686422 0.1591671 -0.7263494
v -0.456933 -0.132817 -0.500000
vn 0.6328110 0.2681143 -0.7264056
v -0.450946 -0.185683 -0.500000
vn 0.6933399 0.0754714 -0.7166477
v -0.459808 -0.077783 -0.500000
vn 0.6887446 0.2650141 -0.6748322
v -0.473161 0.446600 -0.500000
# 68 vertices, 0 vertices normals


usemtl material_0
vt 0.6981710 0.0000000
vt 0.6981710 0.5558470
vt 0.5904640 0.5558470
f 1/1/1 2/2/2 3/3/3
vt 0.5904640 -0.0000000
f 3/3/3 4/4/4 1/1/1
vt 0.3221860 0.0000000
vt 0.3221860 0.5558470
vt 0.0000000 0.5558470
f 4/5/4 3/6/3 5/7/5
vt 0.0000000 0.0000000
f 5/7/5 6/8/6 4/5/4
vt 0.8058780 0.0000000
vt 0.8058780 0.5558470
f 6/9/6 5/10/5 7/2/7
f 7/2/7 8/1/8 6/9/6
vt 0.8899020 0.5558470
vt 0.8899020 0.0000000
vt 0.8926770 0.0000000
f 9/11/9 10/12/10 11/13/11
vt 0.8926770 0.5558470
vt 0.8953550 0.0000000
f 12/14/12 11/13/11 13/15/13
vt 0.8953550 0.5558470
vt 0.8976950 0.0000000
f 14/16/14 13/15/13 15/17/15
vt 0.9895120 0.5558470
vt 0.9895120 0.0000000
vt 0.9920110 0.0000000
f 16/18/16 15/19/15 17/20/17
vt 0.9920110 0.5558470
vt 0.9947560 0.0000000
f 18/21/18 17/20/17 8/22/8
vt 0.9947560 0.5558470
f 8/22/8 7/23/7 18/21/18
f 17/20/17 18/21/18 16/18/16
vt 0.8976950 0.5558470
f 15/17/15 16/24/16 14/16/14
f 13/15/13 14/16/14 12/14/12
f 11/13/11 12/14/12 9/11/9
vt 0.8351310 0.5558470
f 10/12/10 9/11/9 19/25/19
vt 0.8351310 0.0000000
f 19/25/19 20/26/20 10/12/10
vt 0.5736590 0.5558470
vt 0.5674940 0.5558470
vt 0.5674950 -0.0000000
f 21/27/21 22/28/22 23/29/23
vt 0.5796520 0.5558470
vt 0.5736590 -0.0000000
f 24/30/24 21/27/21 25/31/25
vt 0.5853060 0.5558470
vt 0.5796520 -0.0000000
f 26/32/26 24/30/24 27/33/27
vt 0.5853060 -0.0000000
f 28/3/28 26/32/26 29/34/29
vt 0.8110910 0.5558470
f 30/35/30 28/10/28 31/9/31
vt 0.8167860 0.5558470
vt 0.8110910 0.0000000
f 32/36/32 30/35/30 33/37/33
vt 0.8228030 0.5558470
vt 0.8167860 0.0000000
f 34/38/34 32/36/32 35/39/35
vt 0.8289760 0.5558470
vt 0.8228030 0.0000000
f 36/40/36 34/38/34 37/41/37
vt 0.8289760 0.0000000
f 19/25/19 36/40/36 38/42/38
f 38/42/38 20/26/20 19/25/19
f 37/41/37 38/42/38 36/40/36
f 35/39/35 37/41/37 34/38/34
f 33/37/33 35/39/35 32/36/32
f 31/9/31 33/37/33 30/35/30
f 29/34/29 31/4/31 28/3/28
f 27/33/27 29/34/29 26/32/26
f 25/31/25 27/33/27 24/30/24
f 23/29/23 25/31/25 21/27/21
vt 0.3451560 0.5558470
f 23/29/23 22/28/22 39/43/39
vt 0.3451560 -0.0000000
f 39/43/39 40/44/40 23/29/23
vt 0.3345320 0.6057710
vt 0.3345320 0.8281100
f 6/6/6 23/45/23 40/46/40
vt 0.4333560 0.5558470
vt 0.4329400 0.5585920
vt 0.4317290 0.5610910
f 8/47/8 17/48/17 15/49/15
vt 0.3221860 0.8780330
f 40/46/40 4/50/4 6/6/6
vt 0.4298320 0.5631190
f 15/49/15 13/51/13 8/47/8
vt 0.3350480 0.5996060
f 6/6/6 25/52/25 23/45/23
vt 0.3425090 0.5828020
vt 0.3390930 0.5879590
f 6/6/6 31/53/31 29/54/29
vt 0.4247080 0.5650910
vt 0.3691230 0.5687960
f 8/47/8 10/55/10 20/56/20
vt 0.4274190 0.5644930
f 13/51/13 11/57/11 8/47/8
vt 0.3390930 0.8459210
vt 0.3425090 0.8510790
f 4/50/4 41/58/41 42/59/42
vt 0.3350480 0.8342740
f 40/46/40 43/60/43 4/50/4
vt 0.3467350 0.5782840
f 6/6/6 33/61/33 31/53/31
vt 0.3571290 0.5716520
vt 0.3516540 0.5745330
f 6/6/6 37/62/37 35/63/35
f 11/57/11 10/55/10 8/47/8
vt 0.4247080 0.8687900
vt 0.4317290 0.8727900
vt 0.4329400 0.8752880
f 44/64/44 45/65/45 46/66/46
vt 0.4274190 0.8693880
vt 0.4298320 0.8707620
f 44/64/44 47/67/47 48/68/48
vt 0.3467350 0.8555970
f 42/59/42 49/69/49 4/50/4
vt 0.3365830 0.5936130
f 6/6/6 27/70/27 25/52/25
f 35/63/35 33/61/33 6/6/6
f 20/56/20 6/6/6 8/47/8
f 48/68/48 45/65/45 44/64/44
vt 0.4333560 0.8780330
vt 0.3691230 0.8650840
f 1/71/1 4/50/4 50/72/50
vt 0.3516540 0.8593480
vt 0.3571290 0.8622290
f 4/50/4 51/73/51 52/74/52
vt 0.3365830 0.8402670
f 4/50/4 53/75/53 41/58/41
f 29/54/29 27/70/27 6/6/6
vt 0.3630060 0.5697220
f 20/56/20 38/76/38 6/6/6
f 50/72/50 44/64/44 1/71/1
f 49/69/49 51/73/51 4/50/4
f 38/76/38 37/62/37 6/6/6
vt 0.3630060 0.8641590
f 4/50/4 54/77/54 50/72/50
f 43/60/43 53/75/53 4/50/4
f 52/74/52 54/77/54 4/50/4
f 46/66/46 1/71/1 44/64/44
vt 0.0000000 0.6670170
vt 0.0072710 0.6634930
vt 0.0052440 0.6653900
f 7/78/7 14/79/14 16/80/16
vt 0.2722630 0.5681930
f 5/7/5 3/6/3 39/81/39
vt 0.0086460 0.6610800
f 7/78/7 12/82/12 14/79/14
vt 0.0499240 0.5681920
f 39/81/39 22/83/22 5/7/5
vt 0.0092440 0.6583690
f 7/78/7 9/84/9 12/82/12
vt 0.0129490 0.6027840
f 7/78/7 5/7/5 19/85/19
vt 0.0224370 0.5803960
vt 0.0186850 0.5853150
f 5/7/5 30/86/30 32/87/32
vt 0.2784270 0.5687090
f 3/6/3 55/88/55 39/81/39
f 19/85/19 9/84/9 7/78/7
vt 0.0269540 0.5761700
f 5/7/5 28/89/28 30/86/30
vt 0.0377660 0.5702440
vt 0.0321120 0.5727540
f 5/7/5 24/90/24 26/91/26
vt 0.2844200 0.5702440
f 3/6/3 56/92/56 55/88/55
vt 0.2997490 0.5803960
vt 0.2952320 0.5761700
f 3/6/3 57/93/57 58/94/58
vt 0.0138750 0.5966670
f 5/7/5 36/95/36 19/85/19
f 26/91/26 28/89/28 5/7/5
vt 0.0437590 0.5687090
f 22/83/22 21/96/21 5/7/5
vt 0.3035010 0.5853150
f 3/6/3 59/97/59 57/93/57
vt 0.3129430 0.6583690
vt 0.3169420 0.6653900
vt 0.3149150 0.6634930
f 60/98/60 61/99/61 62/100/62
vt 0.3221860 0.6670170
vt 0.3194410 0.6666010
f 60/98/60 2/101/2 63/102/63
vt 0.0158050 0.5907900
f 5/7/5 34/103/34 36/95/36
f 21/96/21 24/90/24 5/7/5
vt 0.2900740 0.5727540
f 58/94/58 64/104/64 3/6/3
vt 0.3083120 0.5966670
vt 0.3063820 0.5907900
f 3/6/3 65/105/65 66/106/66
vt 0.3092370 0.6027840
f 2/101/2 60/98/60 67/107/67
f 63/102/63 61/99/61 60/98/60
f 32/87/32 34/103/34 5/7/5
f 66/106/66 59/97/59 3/6/3
vt 0.3135400 0.6610800
f 62/100/62 68/108/68 60/98/60
f 64/104/64 56/92/56 3/6/3
f 67/107/67 3/6/3 2/101/2
f 67/107/67 65/105/65 3/6/3
vt 0.0027450 0.6666010
f 16/80/16 18/109/18 7/78/7
vt 0.9664140 0.5558470
vt 0.9602590 0.5558470
vt 0.9602590 -0.0000000
f 65/110/65 67/111/67 50/112/50
vt 0.9725870 0.5558470
vt 0.9664140 -0.0000000
f 66/113/66 65/110/65 54/114/54
vt 0.9786040 0.5558470
vt 0.9725870 -0.0000000
f 59/115/59 66/113/66 52/116/52
vt 0.9842990 0.5558470
vt 0.9786040 -0.0000000
f 57/117/57 59/115/59 51/118/51
vt 0.9842990 -0.0000000
f 58/18/58 57/117/57 49/119/49
vt 0.3273440 0.5558470
f 64/120/64 58/6/58 42/5/42
vt 0.3329980 0.5558470
vt 0.3273440 -0.0000000
f 56/121/56 64/120/64 41/122/41
vt 0.3389910 0.5558470
vt 0.3329980 -0.0000000
f 55/123/55 56/121/56 53/124/53
vt 0.3389910 -0.0000000
f 39/43/39 55/123/55 43/125/43
f 43/125/43 40/44/40 39/43/39
f 53/124/53 43/125/43 55/123/55
f 41/122/41 53/124/53 56/121/56
f 42/5/42 41/122/41 64/120/64
f 49/119/49 42/19/42 58/18/58
f 51/118/51 49/119/49 57/117/57
f 52/116/52 51/118/51 59/115/59
f 54/114/54 52/116/52 66/113/66
f 50/112/50 54/114/54 65/110/65
vt 0.9054880 0.5558470
f 50/112/50 67/111/67 60/126/60
vt 0.9054880 -0.0000000
f 60/126/60 44/127/44 50/112/50
vt 0.9975010 -0.0000000
f 2/23/2 1/22/1 46/128/46
vt 0.9975010 0.5558470
vt 1.0000000 -0.0000000
f 63/129/63 46/128/46 45/130/45
vt 0.9000350 -0.0000000
f 61/24/61 45/17/45 48/131/48
vt 0.9000350 0.5558470
vt 0.9027130 -0.0000000
f 62/132/62 48/131/48 47/133/47
vt 0.9027130 0.5558470
f 68/134/68 47/133/47 44/127/44
f 44/127/44 60/126/60 68/134/68
f 47/133/47 68/134/68 62/132/62
f 48/131/48 62/132/62 61/24/61
vt 1.0000000 0.5558470
f 45/130/45 61/135/61 63/129/63
f 46/128/46 63/129/63 2/23/2
# 132 faces, 135 coords texture

# End of File
